<?xml version="1.0" encoding="UTF-8" standalone="no"?><!DOCTYPE svg PUBLIC "-//W3C//DTD SVG 1.1//EN" "http://www.w3.org/Graphics/SVG/1.1/DTD/svg11.dtd"><svg width="100%" height="100%" viewBox="0 0 36 10" version="1.1" xmlns="http://www.w3.org/2000/svg" xmlns:xlink="http://www.w3.org/1999/xlink" xml:space="preserve" xmlns:serif="http://www.serif.com/" style="fill-rule:evenodd;clip-rule:evenodd;stroke-linejoin:round;stroke-miterlimit:2;"><g id="Fondo"><path d="M10.052,1.574c0.06,0.029 0.056,0.026 0.123,0.028c0.489,0.033 0.68,0.138 1.21,0.155c0.072,0.034 0.071,0.029 0.153,0.028l0.059,0.001c0.041,0.009 0.082,0.018 0.123,0.027c0.1,0.017 0.249,0.034 0.271,0.036c0.322,0.037 0.141,0.24 0.097,0.339c-0.009,0.021 -0.018,0.042 -0.027,0.064c-0.032,0.067 -0.034,0.065 -0.038,0.088c-0.012,0.016 -0.094,0.127 -0.117,0.213c-0.01,0.03 -0.02,0.061 -0.03,0.091l-0.007,0.027c-0.047,0.036 -0.048,0.035 -0.059,0.092c-0.057,0.078 -0.109,0.195 -0.117,0.212c-0.009,0.021 -0.018,0.042 -0.027,0.064c-0.033,0.069 -0.034,0.066 -0.038,0.087c-0.069,0.101 -0.044,0.111 -0.115,0.214c-0.012,0.02 -0.023,0.039 -0.035,0.059c-0.039,0.077 -0.034,0.074 -0.057,0.153c-0.064,0.088 -0.115,0.22 -0.123,0.24l-0.029,0.032c-0.03,0.059 -0.03,0.055 -0.035,0.12c-0.012,0.015 -0.056,0.091 -0.056,0.092c-0.098,0.162 -0.123,0.009 -0.209,-0.16c0.007,-0.095 -0.003,-0.091 -0.046,-0.176c-0.079,-0.177 -0.087,-0.302 -0.205,-0.241c-0.028,0.005 -0.026,0.008 -0.118,0.066c-0.008,0.005 -0.055,0.035 -0.094,0.085c-0.048,0.008 -0.053,0.008 -0.062,0.059c-0.124,0.058 -0.129,0.048 -0.211,0.153c-0.06,0.015 -0.049,0.029 -0.093,0.088c-0.08,0.058 -0.079,0.052 -0.149,0.123c-0.021,0.019 -0.042,0.039 -0.063,0.058c-0.105,0.06 -0.095,0.068 -0.179,0.154c-0.059,0.035 -0.057,0.034 -0.091,0.091c-0.007,0.007 -0.047,0.046 -0.091,0.091c-0.058,0.033 -0.058,0.031 -0.091,0.091c-0.019,0.019 -0.213,0.209 -0.237,0.245c-0.012,0.019 -0.023,0.039 -0.035,0.058c-0.018,0.012 -0.036,0.024 -0.055,0.036c-0.012,0.018 -0.025,0.036 -0.037,0.054c-0.04,0.041 -0.034,0.042 -0.062,0.09c-0.056,0.012 -0.044,0.026 -0.089,0.092c-0.026,0.033 -0.024,0.03 -0.026,0.033c-0.007,0.012 0.002,0.013 -0.005,0.027c-0.01,0.002 -0.069,0.011 -0.09,0.092c-0.007,0.007 -0.056,0.054 -0.085,0.093c-0.029,0.064 -0.033,0.06 -0.034,0.09c-0.045,0.03 -0.054,0.023 -0.063,0.059c-0.079,0.082 -0.137,0.196 -0.147,0.214c-0.004,0.005 -0.02,-0.009 -0.034,0.059c-0.091,0.116 -0.113,0.165 -0.12,0.181c-0.009,0.021 -0.018,0.042 -0.027,0.063l-0.009,0.026c-0.044,0.035 -0.051,0.029 -0.059,0.061c-0.009,0.011 -0.018,0.021 -0.027,0.032c-0.038,0.041 -0.051,0.059 -0.054,0.064c-0.313,0.454 0.125,-0.009 0.132,-0.018c0.017,-0.017 0.134,-0.132 0.222,-0.201c0.035,-0.009 0.027,-0.014 0.063,-0.058c0.022,-0.007 0.077,-0.026 0.24,-0.155c0.071,-0.015 0.057,-0.033 0.059,-0.034c0.021,-0.01 0.156,-0.075 0.244,-0.148c0.027,-0.003 0.025,-0.006 0.09,-0.036c0.177,-0.025 0.179,-0.029 0.185,-0.021c0.014,0.018 0.007,0.023 -0.152,0.242c-0.045,0.012 -0.046,0.013 -0.059,0.062c-0.05,0.038 -0.046,0.035 -0.05,0.038c-0.011,0.011 0.002,0.015 -0.007,0.024c-0.009,0.011 -0.018,0.022 -0.027,0.032c-0.038,0.043 -0.036,0.041 -0.058,0.093c-0.076,0.081 -0.053,0.093 -0.12,0.182c-0.029,0.042 -0.03,0.039 -0.032,0.09c-0.08,0.079 -0.147,0.245 -0.156,0.268l-0.027,0.032c-0.022,0.047 -0.025,0.043 -0.029,0.093c-0.071,0.183 -0.086,0.174 -0.156,0.359c-0.019,0.046 -0.022,0.042 -0.015,0.086l-0.013,0.007c-0.018,0.042 -0.026,0.037 -0.018,0.083c-0.116,0.228 -0.124,0.336 -0.139,0.398c-0.016,0.033 -0.024,0.028 -0.018,0.069c0.055,0.108 0.074,0.012 0.104,-0.014c0.016,-0.006 0.067,-0.026 0.182,-0.118c0.073,-0.016 0.058,-0.035 0.059,-0.035c0.185,-0.089 0.228,-0.13 0.245,-0.146c0.026,-0.005 0.021,-0.006 0.086,-0.039c0.053,-0.021 0.05,-0.018 0.095,-0.056c0.101,-0.04 0.224,-0.134 0.242,-0.148c0.02,-0.011 0.04,-0.022 0.061,-0.033c0.021,-0.009 0.112,-0.046 0.242,-0.15c0.028,-0.004 0.024,-0.006 0.087,-0.037c0.011,-0.009 0.021,-0.018 0.032,-0.027c0.028,-0.056 0.024,-0.053 0.028,-0.115c0.017,-0.105 0.02,-0.1 0.018,-0.209c0.021,-0.14 0.005,-1.173 0.01,-1.699c0.002,-0.26 0.007,-0.269 0.189,-0.456c0.079,-0.019 0.063,-0.057 0.063,-0.058c0.104,-0.062 0.094,-0.07 0.179,-0.154c0.198,-0.196 0.134,0.094 0.134,1.183c0,0.546 0.023,0.541 0.023,1.09c0,0.594 -0.06,0.707 -0.089,0.761c-0.013,0.018 -0.025,0.037 -0.038,0.055c-0.107,0.065 -0.11,0.058 -0.118,0.065c-0.007,0.002 -0.006,0.002 -0.088,0.037l-0.03,0.032c-0.02,0.01 -0.041,0.02 -0.061,0.029c-0.011,0.009 -0.022,0.017 -0.033,0.026c-0.042,0.022 -0.194,0.113 -0.211,0.123c-0.03,0.011 -0.059,0.022 -0.089,0.033l-0.032,0.028c-0.053,0.015 -0.17,0.105 -0.184,0.116c-0.034,0.008 -0.029,0.012 -0.058,0.035c-0.03,0.01 -0.06,0.02 -0.091,0.031l-0.031,0.03c-0.008,0.002 -0.086,0.049 -0.123,0.086c-0.029,0.004 -0.025,0.007 -0.087,0.039c-0.02,0.01 -0.041,0.02 -0.061,0.03c-0.011,0.009 -0.022,0.017 -0.033,0.026c-0.169,0.085 -0.196,0.108 -0.21,0.121c-0.04,0.021 -0.081,0.043 -0.121,0.064c-0.011,0.008 -0.023,0.017 -0.034,0.025c-0.018,0.008 -0.017,0.009 -0.209,0.125c-0.03,0.011 -0.06,0.022 -0.09,0.032l-0.032,0.029c-0.012,0.003 -0.089,0.05 -0.123,0.085c-0.03,0.005 -0.026,0.008 -0.086,0.04c-0.04,0.02 -0.04,0.018 -0.065,0.052c-0.039,0.003 -0.034,0.007 -0.09,0.034c-0.066,0.018 -0.139,0.08 -0.15,0.089c-0.039,0.023 -0.039,0.019 -0.065,0.056l-0.027,0.007c-0.02,0.01 -0.041,0.019 -0.061,0.029c-0.02,0.01 -0.154,0.078 -0.243,0.148c-0.027,0.004 -0.023,0.006 -0.088,0.037c-0.011,0.008 -0.023,0.016 -0.034,0.025c-0.052,0.023 -0.051,0.019 -0.091,0.058c-0.099,0.023 -0.087,0.053 -0.092,0.059c-0.054,0.033 -0.054,0.03 -0.059,0.033c-0.035,0.005 -0.03,0.007 -0.089,0.036c-0.062,0.017 -0.159,0.137 -0.305,0.147c0.005,-1.273 0.026,-1.285 -0.039,-1.371c0.003,-0.004 0.025,-0.034 0.031,-0.06c0.062,-0.01 0.056,-0.017 0.093,-0.065c0.044,-0.033 0.117,-0.113 0.12,-0.118c0.009,-0.011 0.018,-0.023 0.028,-0.034c0.044,-0.019 0.044,-0.014 0.067,-0.057c0.05,-0.02 0.049,-0.017 0.087,-0.06c0.01,-0.011 0.019,-0.022 0.029,-0.033c0.01,-0.011 0.02,-0.021 0.03,-0.032c0.042,-0.019 0.042,-0.014 0.067,-0.056c0.053,-0.022 0.051,-0.019 0.087,-0.06c0.013,-0.018 0.025,-0.036 0.038,-0.054c0.041,-0.023 0.326,-0.186 0.472,-0.343c0.129,-0.139 -0.094,-0.034 -0.378,0.165c-0.013,0.015 -0.026,0.031 -0.038,0.046c-0.151,0.037 -0.538,0.349 -0.694,0.369c0.007,-0.066 0.004,-0.062 -0.002,-0.664c-0.002,-0.176 0.037,-0.283 -0.022,-0.391l-0.001,-0.031c0.017,-0.013 0.034,-0.026 0.052,-0.038c0.061,-0.061 0.062,-0.054 0.124,-0.117c0.021,-0.019 0.042,-0.039 0.063,-0.058c0.087,-0.05 0.087,-0.047 0.149,-0.124c0.071,-0.04 0.06,-0.046 0.118,-0.096c0.011,-0.008 0.063,-0.045 0.119,-0.119c0.051,-0.009 0.054,-0.01 0.065,-0.062c0.072,-0.028 0.067,-0.029 0.118,-0.09c0.009,-0.011 0.019,-0.022 0.028,-0.033c0.064,-0.028 0.064,-0.028 0.097,-0.088c0.051,-0.021 0.05,-0.017 0.087,-0.06c0.003,-0.003 0.021,0.012 0.038,-0.054c0.038,-0.021 0.22,-0.118 0.445,-0.314c0.437,-0.382 -0.248,0.039 -0.383,0.166c-0.022,0.018 -0.043,0.035 -0.065,0.053c-0.023,0.005 -0.144,0.031 -0.265,0.135c-0.014,0.012 -0.339,0.188 -0.366,0.209c-0.022,0.018 -0.043,0.035 -0.065,0.053c-0.172,0.053 -0.148,0.116 -0.328,0.129c-0.011,-1.001 -0.027,-1.024 0.122,-1.183c0.698,-0.744 1.571,-1.358 1.719,-1.462c0.146,-0.102 0.152,-0.159 0.155,-0.178c0.009,-0.012 0.018,-0.024 0.027,-0.035c0.262,-0.188 0.291,-0.135 0.546,-0.331c0.022,-0.004 0.021,-0.007 0.121,-0.064c0.076,-0.039 0.077,-0.034 0.083,-0.039c0.229,-0.206 0.67,-0.35 0.766,-0.441c0.063,-0.035 0.061,-0.049 0.022,-0.114c-0.009,-0.011 -0.018,-0.022 -0.026,-0.032c-0.111,-0.141 -0.105,-0.143 -0.117,-0.153c-0.004,-0.03 -0.009,-0.027 -0.067,-0.119c-0.006,-0.01 -0.044,-0.072 -0.087,-0.121c-0.025,-0.039 -0.02,-0.038 -0.056,-0.065c-0.02,-0.168 0.076,-0.091 0.243,-0.098Z" style="fill:#f77810;fill-opacity:0.99;"/><path d="M8.578,3.198l0.021,-0.011c-0.002,0.019 -0.009,0.075 -0.155,0.178c-0.148,0.104 -1.021,0.719 -1.719,1.462c-0.149,0.159 -0.133,0.183 -0.122,1.183c-0.033,0.022 -0.311,0.211 -0.432,0.253c-0.158,0.054 -0.1,-0.327 -0.106,-0.987c-0.004,-0.384 -0.112,-0.344 -0.441,-0.535c-2.48,-1.432 -2.732,-1.61 -2.777,-1.553c-0.043,0.054 -0.018,3.286 -0.015,3.572c0.001,0.185 0.081,0.152 0.258,0.267c0.311,0.202 1.535,0.888 1.669,0.963c1.101,0.617 1.33,0.826 1.314,0.647c-0.026,-0.282 0.091,-0.258 0.489,-0.64c0.065,0.086 0.044,0.097 0.039,1.371c-0.018,0.004 -0.034,0.016 -0.037,0.018c-0.341,0.252 -0.369,0.014 -2.331,-1.073c-1.839,-1.019 -1.855,-1.027 -1.922,-1.195c-0.041,-0.103 -0.043,-4.412 0.003,-4.563c0.019,-0.064 0.032,-0.107 0.69,-0.477c3.215,-1.808 3.238,-2.008 3.569,-1.805c0.408,0.25 2.115,1.229 2.18,1.274c0.208,0.144 0.923,0.486 0.91,0.58c-0.007,0.048 -0.416,0.268 -0.456,0.277c-0.133,0.032 -2.642,-1.532 -2.786,-1.584c-0.086,-0.031 -0.105,-0.038 -1.024,0.501c-2.143,1.257 -2.36,1.295 -2.179,1.396c1.304,0.729 2.933,1.697 3.024,1.732c0.08,0.03 0.141,0.054 0.969,-0.439c0.109,-0.065 1.334,-0.794 1.37,-0.812Z" style="fill:#3b3f40;fill-opacity:1;"/><path d="M20.895,4.11c1.621,0.198 0.921,2.623 -0.327,2.123c-0.146,-0.059 -0.268,-0.253 -0.258,-0.018c0.033,0.775 -0.013,0.795 -0.077,0.801c-0.042,0.004 -0.512,0.052 -0.517,-0.075c-0.006,-0.173 -0.017,-2.638 0.002,-2.725c0.016,-0.074 0.539,-0.117 0.547,0.029c0.005,0.08 0.04,0.11 0.096,0.042c0.114,-0.137 0.49,-0.174 0.535,-0.178l0.164,0.639c-0.464,-0.453 -0.966,0.275 -0.718,0.743c0.401,0.755 1.3,-0.107 0.718,-0.743l-0.164,-0.639Z" style="fill:#3b3f42;fill-opacity:0.99;"/><path d="M28.19,4.134c0.069,0.056 0.019,0.258 0.146,0.129c0.046,-0.046 0.04,-0.049 0.097,-0.084c0.031,-0.01 0.062,-0.019 0.093,-0.029c0.021,-0.01 0.041,-0.02 0.062,-0.03c0.215,-0.025 0.211,-0.025 0.425,0c0.021,0.009 0.042,0.019 0.063,0.028c0.077,0.034 0.074,0.032 0.153,0.064c0.064,0.074 0.066,0.068 0.148,0.124c0.06,0.138 0.088,0.023 0.119,-0.03c0.055,-0.054 0.058,-0.043 0.121,-0.091c0.003,-0.001 0,0 0.089,-0.037l0.031,-0.03l0.007,-0.013c0.046,0.007 0.042,0.003 0.087,-0.014c0.202,-0.03 0.26,-0.034 0.486,-0c0.058,0.032 0.054,0.034 0.123,0.032c0.011,0.009 0.021,0.018 0.032,0.027c0.004,0.003 -0.01,0.019 0.058,0.035c0.15,0.129 0.204,0.218 0.217,0.241c0.009,0.031 0.018,0.062 0.027,0.093c0.011,0.02 0.021,0.041 0.032,0.061c0.091,0.382 0.104,1.636 -0.004,1.642c-0.051,0.003 -0.102,-0.003 -0.152,-0c-0.047,0 -0.042,-0.004 -0.091,-0.004c-0.005,0 0,0 -0.061,0.004l-0.152,0.001c-0.023,-0.008 -0.013,-0.018 -0.035,-0.026c-0.004,-0.002 0,0 -0.056,-0.01c-0.007,-0.562 -0.004,-0.558 -0.005,-1.121c0.017,-0.202 -0.026,-0.203 -0.03,-0.212c-0.023,-0.097 -0.035,-0.088 -0.091,-0.176c-0.009,-0.011 -0.019,-0.022 -0.028,-0.032c-0.042,-0.016 -0.038,-0.023 -0.084,-0.013c-0.082,-0.018 -0.079,-0.012 -0.159,-0.001c-0.106,-0.013 -0.119,0.033 -0.146,0.072c-0.079,0.08 -0.086,0.165 -0.087,0.181c-0.029,0.057 -0.025,0.056 -0.028,0.122l-0,0.12c-0.09,0.366 -0.016,0.44 0,0.575c-0,0.131 -0,0.263 -0,0.394c-0.048,0.082 -0.115,0.12 -0.128,0.127c-0.07,-0 -0.474,0.034 -0.49,-0.065c-0.05,-0.304 0.043,-1.145 -0.076,-1.339c0.007,-0.053 0,-0.052 -0.044,-0.084c-0.02,-0.044 -0.016,-0.041 -0.03,-0.056c-0.063,-0.055 -0.064,-0.065 -0.144,-0.046c-0.046,-0.018 -0.045,-0.011 -0.092,-0.011c-0.074,0.004 -0.079,-0.006 -0.124,0.05c-0.405,0.242 -0.024,1.545 -0.271,1.55c-0.034,0.001 -0.031,0 -0.425,0.001c-0.029,-0.022 -0.031,-0.011 -0.061,-0.035c-0.003,-0.002 0,0 -0.036,-0.03c-0.015,-1.928 -0.01,-1.988 0.032,-2.037c0.398,0.012 0.447,-0.003 0.484,-0.014Z" style="fill:#f7760e;fill-opacity:0.99;"/><path d="M19.066,4.352c0.781,0.76 0.058,2.41 -1.039,1.82c-0.007,-0.004 -0.005,-0.005 -0.078,-0.067c-0.033,-0.028 -0.076,-0.02 -0.077,0.02c-0.007,0.465 0.051,0.893 -0.097,0.898c-0.111,0.004 -0.483,0.054 -0.492,-0.111c-0.003,-0.057 -0.012,-2.611 0.01,-2.695c0.001,-0.005 -0.015,-0.084 0.421,-0.054c0.165,0.011 0.078,0.108 0.136,0.161c0.042,0.039 0.503,-0.522 1.215,0.029l-1.03,1.3c0.684,0.629 1.116,-0.925 0.345,-1.038c-0.391,-0.057 -0.75,0.584 -0.345,1.038l1.03,-1.3Z" style="fill:#3c3f42;fill-opacity:1;"/><path d="M13.278,3.96c-0.693,0.734 1.7,0.291 1.273,1.735c-0.233,0.788 -1.817,0.824 -2.071,-0.087c-0.033,-0.119 0.532,-0.339 0.646,-0.08c0.228,0.516 1.277,0.046 0.687,-0.323c-0.17,-0.106 -1.644,-0.3 -1.203,-1.346c0.284,-0.674 1.653,-0.727 1.919,0.116c0.013,0.04 0.053,0.168 -0.479,0.217c-0.143,0.013 -0.322,-0.573 -0.772,-0.232Z" style="fill:#3b3f41;fill-opacity:0.99;"/><path d="M31.919,4.12c0.29,-0.008 0.285,-0.012 0.576,-0c0.042,0.016 0.038,0.02 0.086,0.015l0.007,0.012c0.04,0.017 0.035,0.025 0.084,0.017c0.106,0.063 0.141,0.122 0.249,0.168c0.011,0.047 0.02,0.04 0.06,0.064c0.006,0.01 0.048,0.076 0.091,0.121c0.013,0.054 0.011,0.049 0.013,0.054c0.008,0.02 0.015,0.014 0.023,0.035c0.01,0.02 0.02,0.041 0.031,0.061l0.027,0.032c0.018,0.046 0.193,0.675 -0.065,0.673c-1.259,-0.01 -1.334,-0.015 -1.312,0.088c0.013,0.062 0.342,0.468 0.65,0.279c0.055,0.01 0.055,0.003 0.086,-0.039c0.012,-0.008 0.013,0.004 0.027,-0.005c0.003,-0.002 -0,0 0.029,-0.029c0.011,-0.02 0.021,-0.04 0.032,-0.06c0.021,-0.011 0.041,-0.022 0.062,-0.033c0.238,0.011 0.219,0.083 0.457,0.122c0.061,0.01 0.029,0.175 0.029,0.186c-0.043,0.033 -0.051,0.026 -0.059,0.062c-0.032,0.033 -0.029,0.03 -0.056,0.063c-0.012,0.019 -0.025,0.037 -0.037,0.056c-0.109,0.064 -0.104,0.065 -0.208,0.128c-0.015,0.002 -0.097,0.016 -0.246,0.088c-0.304,0.039 -0.303,0.023 -0.606,-0c-0.059,-0.027 -0.058,-0.023 -0.124,-0.027c-0.049,-0.038 -0.08,-0 -0.243,-0.155c-0.018,-0.017 -0.087,-0.052 -0.095,-0.056c-0.019,-0.047 0.009,-0.074 -0.088,-0.098c-0.054,-0.12 -0.135,-0.224 -0.149,-0.242c-0.003,-0.027 -0.005,-0.025 -0.033,-0.092c-0.018,-0.177 -0.126,-0.353 -0.022,-0.757c0.006,-0.023 0.047,-0.18 0.111,-0.277c0.012,-0.019 0.024,-0.038 0.036,-0.058c0.055,-0.055 0.039,-0.062 0.089,-0.123c0.019,-0.012 0.037,-0.024 0.056,-0.036c0.011,-0.009 0.022,-0.019 0.034,-0.028c0.013,-0.008 0.046,-0.026 0.154,-0.117c0.026,-0.005 0.02,-0.005 0.087,-0.039c0.079,-0.035 0.081,-0.02 0.156,-0.054l0.095,0.497c-0.075,0.062 -0.074,0.058 -0.154,0.115c-0.008,0.008 -0.181,0.202 -0.001,0.204c0.704,0.008 0.748,0.012 0.749,-0.082c-0.029,-0.041 -0.02,-0.041 -0.029,-0.089c-0.003,-0.006 -0.006,-0.001 -0.058,-0.058c-0.007,-0.006 -0.01,0.01 -0.091,-0.058c-0.01,-0.01 -0.021,-0.019 -0.031,-0.029c-0.029,-0.011 -0.21,-0.08 -0.385,-0.003l-0.095,-0.497Z" style="fill:#f8760e;fill-opacity:0.98;"/><path d="M25.791,4.291c0.58,0.498 0.425,1.041 0.315,1.055c-0.238,0.03 -1.419,-0.086 -1.382,0.079c0.014,0.06 0.317,0.7 0.878,0.197c0.08,-0.072 0.686,0.015 0.433,0.313c-0.712,0.841 -2.344,0.138 -1.824,-1.227c0.124,-0.327 0.791,-0.92 1.58,-0.417l-1.003,0.461c-0.183,0.298 0.118,0.166 0.741,0.21c0.262,0.019 -0.143,-0.644 -0.659,-0.313c-0.059,0.038 -0.054,0.039 -0.083,0.103l1.003,-0.461Z" style="fill:#3b3f42;fill-opacity:0.99;"/><path d="M16.523,6.109c-0.517,0.334 -1.579,0.276 -1.592,-0.743c-0.014,-1.126 -0.036,-1.157 0.053,-1.192c0.034,-0.013 0.497,-0.056 0.525,0.039c0.101,0.349 -0.247,1.647 0.449,1.545c0.601,-0.088 0.163,-1.525 0.37,-1.589c0.019,-0.006 0.519,-0.065 0.536,0.077c0.006,0.053 0.011,1.151 -0.01,1.27c-0.029,0.171 -0.079,0.375 -0.332,0.593Z" style="fill:#3c4043;fill-opacity:0.99;"/><path d="M22.758,5.548c-0.002,0.34 0.04,0.68 -0.106,0.686c-0.349,0.014 -0.494,0.085 -0.496,-0.262c-0.001,-0.209 -0.015,-2.503 0.004,-2.607c0.019,-0.104 0.505,-0.094 0.562,-0.038c0.06,0.059 0.028,0.073 0.036,2.221Z" style="fill:#3e4144;fill-opacity:1;"/><path d="M23.788,4.247c-0.006,1.848 0.078,1.976 -0.137,1.98c-0.004,0 -0.444,0.045 -0.452,-0.073c-0.003,-0.04 -0.002,-1.873 -0,-1.908c0.006,-0.128 0.43,-0.085 0.481,-0.083c0.116,0.003 0.087,0.051 0.107,0.084Z" style="fill:#3e4044;fill-opacity:0.99;"/><path d="M6.575,6.551c0.059,0.108 0.02,0.215 0.022,0.391c0.005,0.601 0.009,0.598 0.002,0.664c-0.076,0.024 -0.39,0.226 -0.453,0.246c-0.06,0.019 -0.14,-0.011 -0.069,-0.79c0.006,-0.068 0.009,-0.075 0.499,-0.511Z" style="fill:#3d3f41;fill-opacity:0.99;"/><path d="M26.77,5.512c0.203,0.002 0.209,-0.038 0.364,0.036c0.016,0.065 0.034,0.046 0.04,0.051c0.017,0.013 0.034,0.026 0.051,0.04c0.091,0.153 0.037,0.446 0.029,0.484c-0.016,0.013 -0.033,0.026 -0.049,0.039c-0.01,0.037 -0.011,0.033 -0.037,0.059c-0.022,0.018 -0.044,0.036 -0.065,0.054c-0.168,0.012 -0.165,0.005 -0.333,0.005c-0.02,-0.012 -0.04,-0.023 -0.06,-0.035c-0.082,-0.026 -0.081,-0.027 -0.093,-0.028c-0.03,-0.031 -0.056,-0.056 -0.061,-0.061c-0.005,-0.025 -0.007,-0.023 -0.038,-0.088c-0.009,-0.021 -0.017,-0.043 -0.026,-0.064l0,-0.182c0.029,-0.062 0.029,-0.057 0.033,-0.123c0.009,-0.011 0.017,-0.021 0.026,-0.032c0.028,-0.034 0.053,-0.061 0.058,-0.066c0.012,-0.018 0.025,-0.036 0.037,-0.054c0.067,-0.003 0.064,-0.004 0.123,-0.033Z" style="fill:#f7750e;fill-opacity:0.98;"/><path d="M23.297,3.29c0.388,-0.21 0.666,0.257 0.483,0.477c-0.341,0.411 -0.899,-0.123 -0.483,-0.477Z" style="fill:#3c4143;fill-opacity:0.99;"/><path d="M8.237,6.125c0.026,0.016 0.052,0.031 0.078,0.047c-0.007,0.008 -0.446,0.472 -0.132,0.018c0.004,-0.006 0.016,-0.023 0.054,-0.064Z" style="fill:#c05d0c;fill-opacity:0.07;"/><path d="M29.595,5.155c0,0.192 0,0.383 0,0.575c-0.016,-0.135 -0.09,-0.209 -0,-0.575Z" style="fill:#d3650c;fill-opacity:0.16;"/><path d="M28.19,4.134c-0.037,0.011 -0.086,0.026 -0.484,0.014c0.074,-0.054 0.4,-0.04 0.484,-0.014Z" style="fill:#cc610b;fill-opacity:0.18;"/><path d="M32.802,6.192c-0.102,0.085 -0.104,0.084 -0.246,0.088c0.149,-0.071 0.23,-0.086 0.246,-0.088Z" style="fill:#d1630b;fill-opacity:0.16;"/><path d="M32.014,4.617c-0.075,0.062 -0.074,0.058 -0.154,0.115c0.049,-0.093 0.057,-0.085 0.154,-0.115Z" style="fill:#d6650c;fill-opacity:0.13;"/><path d="M29.595,6.124c-0.005,0.11 -0.018,0.122 -0.128,0.127c0.013,-0.007 0.08,-0.045 0.128,-0.127Z" style="fill:#e26c0c;fill-opacity:0.16;"/><path d="M8.359,7.638c0.029,0.008 0.057,0.017 0.086,0.025c-0.03,0.026 -0.049,0.122 -0.104,0.014l0.019,-0.039Z" style="fill:#f1750f;fill-opacity:0.06;"/><path d="M30.219,4.883c0.003,0.009 0.046,0.01 0.03,0.212c-0.035,-0.106 -0.042,-0.103 -0.03,-0.212Z" style="fill:#d6660c;fill-opacity:0.13;"/><path d="M29.495,4.305c-0.031,0.053 -0.059,0.168 -0.119,0.03c0.067,0.009 0.069,0.017 0.119,-0.03Z" style="fill:#c9600b;fill-opacity:0.1;"/><path d="M31.4,5.944c0.097,0.023 0.069,0.051 0.088,0.098c-0.069,-0.026 -0.069,-0.029 -0.088,-0.098Z" style="fill:#f5740d;fill-opacity:0.09;"/><path d="M10.925,3.702c0.042,0.084 0.053,0.081 0.046,0.176c-0.043,-0.083 -0.041,-0.082 -0.046,-0.176Z" style="fill:#d6680d;fill-opacity:0.18;"/><path d="M11.479,3.4l0.007,0.064c-0.023,0.054 -0.027,0.046 -0.064,0.089c0.023,-0.08 0.018,-0.077 0.057,-0.153Z" style="fill:#d5680d;fill-opacity:0.17;"/><path d="M29.075,4.148l0.062,-0.001c0.052,0.027 0.052,0.022 0.092,0.065c-0.079,-0.031 -0.076,-0.03 -0.153,-0.064Z" style="fill:#e26b0c;fill-opacity:0.22;"/><path d="M7.506,5.695c-0.033,0.06 -0.033,0.06 -0.097,0.088l0.004,-0.026c0.051,-0.053 0.057,-0.037 0.092,-0.062Z" style="fill:#f4770f;fill-opacity:0.14;"/><path d="M9.821,6.551c0.003,0.108 -0.001,0.103 -0.018,0.209c0.006,-0.07 0.012,-0.139 0.018,-0.209Z" style="fill:#c4600c;fill-opacity:0.21;"/><path d="M31.919,4.12c-0.076,0.035 -0.078,0.019 -0.156,0.054l-0.029,0.003c0.088,-0.045 0.085,-0.054 0.185,-0.058Z" style="fill:#c45d0b;fill-opacity:0.17;"/><path d="M28.683,4.661c0.08,-0.019 0.08,-0.009 0.144,0.046c-0.075,-0.013 -0.072,-0.009 -0.144,-0.046Z" style="fill:#dd690c;fill-opacity:0.14;"/><path d="M6.685,7.872c-0.037,0.048 -0.031,0.055 -0.093,0.065c0.021,-0.062 0.031,-0.051 0.093,-0.065Z" style="fill:#f4770f;fill-opacity:0.1;"/><path d="M11.385,1.757c0.068,0.002 0.079,-0.027 0.153,0.028c-0.082,0.001 -0.081,0.006 -0.153,-0.028Z" style="fill:#d0650d;fill-opacity:0.14;"/><path d="M7.079,6.087c-0.058,0.05 -0.047,0.056 -0.118,0.096c0.049,-0.062 0.046,-0.06 0.118,-0.096Z" style="fill:#d3670d;fill-opacity:0.19;"/><path d="M8.754,8.158c-0.039,0.041 -0.039,0.037 -0.092,0.063l-0.029,0.001c0.04,-0.021 0.081,-0.043 0.121,-0.064Z" style="fill:#e06d0e;fill-opacity:0.18;"/><path d="M10.164,2.162c0.039,0.065 0.041,0.079 -0.022,0.114c0.009,-0.015 0.006,-0.011 0.023,-0.086l-0.001,-0.028Z" style="fill:#d2660d;fill-opacity:0.1;"/><path d="M9.111,7.269c-0.045,0.038 -0.043,0.035 -0.095,0.056l-0.028,0.003c0.054,-0.046 0.049,-0.052 0.124,-0.059Z" style="fill:#d1660d;fill-opacity:0.14;"/><path d="M9.569,4.429c-0.04,0.051 -0.037,0.048 -0.091,0.091c0.033,-0.06 0.033,-0.058 0.091,-0.091Z" style="fill:#d9690e;fill-opacity:0.17;"/><path d="M29.856,4.66c-0.135,0.069 -0.136,0.064 -0.146,0.072c0.028,-0.039 0.04,-0.085 0.146,-0.072Z" style="fill:#c25d0b;fill-opacity:0.21;"/><path d="M27.673,6.186c0.036,0.03 0.033,0.028 0.036,0.03c0.03,0.023 0.032,0.012 0.061,0.035c-0.068,-0.006 -0.086,0.006 -0.097,-0.065Z" style="fill:#e06b0c;fill-opacity:0.21;"/><path d="M26.647,6.248c0.021,-0.001 0.042,-0.002 0.063,-0.003c0.02,0.012 0.04,0.023 0.06,0.035c-0.068,-0.002 -0.072,0.014 -0.123,-0.031Z" style="fill:#d6650c;fill-opacity:0.1;"/><path d="M9.953,1.858c0.058,0.092 0.063,0.089 0.067,0.119c-0.086,-0.08 -0.058,-0.099 -0.067,-0.119Z" style="fill:#d5680d;fill-opacity:0.18;"/><path d="M9.751,4.248c-0.042,0.051 -0.038,0.048 -0.091,0.091c0.034,-0.057 0.032,-0.056 0.091,-0.091Z" style="fill:#d5670d;fill-opacity:0.19;"/><path d="M30.315,4.12c0.067,0.003 0.072,-0.013 0.123,0.032c-0.069,0.002 -0.065,0 -0.123,-0.032Z" style="fill:#ce620b;fill-opacity:0.11;"/><path d="M29.623,4.913c-0.003,0.068 0.012,0.069 -0.028,0.122c0.002,-0.066 -0.001,-0.065 0.028,-0.122Z" style="fill:#cf630b;fill-opacity:0.13;"/><path d="M10.72,3.461c-0.078,0.083 -0.102,0.059 -0.118,0.066c0.093,-0.058 0.09,-0.062 0.118,-0.066Z" style="fill:#d1660d;fill-opacity:0.19;"/><path d="M9.293,2.756c-0.1,0.058 -0.098,0.06 -0.121,0.064c0.084,-0.087 0.103,-0.057 0.121,-0.064Z" style="fill:#ce640d;fill-opacity:0.2;"/><path d="M28.59,4.649c-0.059,0.039 -0.067,0.013 -0.124,0.05c0.045,-0.056 0.05,-0.046 0.124,-0.05Z" style="fill:#b7570a;fill-opacity:0.19;"/><path d="M32.43,4.648l0.059,-0c0.011,0.019 0.022,0.039 0.032,0.058c-0.007,-0.006 -0.01,0.01 -0.091,-0.058Z" style="fill:#d8670c;fill-opacity:0.14;"/><path d="M30.496,6.25c0.061,-0.004 0.056,-0.004 0.061,-0.004c0.049,-0 0.045,0.004 0.091,0.004c-0.077,0.021 -0.075,0.021 -0.152,-0Z" style="fill:#c55e0b;fill-opacity:0.15;"/><path d="M31.826,6.252c0.066,0.003 0.065,-0 0.124,0.027c-0.068,-0.002 -0.07,0.013 -0.124,-0.027Z" style="fill:#cb600b;fill-opacity:0.14;"/><path d="M11.271,3.825l0.002,0.062c-0.015,0.036 -0.013,0.032 -0.037,0.058c0.004,-0.065 0.005,-0.061 0.035,-0.12Z" style="fill:#cf650d;fill-opacity:0.16;"/><path d="M7.263,5.906c-0.011,0.052 -0.014,0.052 -0.065,0.062c0.031,-0.038 0.027,-0.034 0.065,-0.062Z" style="fill:#f4770f;fill-opacity:0.14;"/><path d="M30.772,4.486c0.044,0.051 0.029,0.054 0.033,0.122c-0.011,-0.02 -0.021,-0.041 -0.032,-0.061c-0,-0.02 -0.001,-0.041 -0.001,-0.061Z" style="fill:#c9600b;fill-opacity:0.14;"/><path d="M11.514,3.341c-0.006,0.043 0.017,0.052 -0.028,0.122l-0.007,-0.064c0.012,-0.02 0.023,-0.039 0.035,-0.059Z" style="fill:#c45f0c;fill-opacity:0.13;"/><path d="M10.235,3.824c-0.047,0.048 -0.042,0.046 -0.093,0.088c0.044,-0.06 0.033,-0.074 0.093,-0.088Z" style="fill:#bb5b0c;fill-opacity:0.15;"/><path d="M8.932,5.155c-0.043,0.051 -0.041,0.046 -0.09,0.092c0.021,-0.081 0.08,-0.09 0.09,-0.092Z" style="fill:#bb5b0c;fill-opacity:0.15;"/><path d="M9.052,5.003c-0.043,0.05 -0.043,0.047 -0.089,0.092c0.045,-0.066 0.034,-0.08 0.089,-0.092Z" style="fill:#bb5b0c;fill-opacity:0.15;"/><path d="M26.526,5.698c-0.003,0.066 -0.004,0.061 -0.033,0.123c0.003,-0.067 -0.012,-0.071 0.033,-0.123Z" style="fill:#c65e0b;fill-opacity:0.15;"/><path d="M10.052,1.574c0.065,0.005 0.067,-0.009 0.123,0.028c-0.066,-0.002 -0.063,0.001 -0.123,-0.028Z" style="fill:#c15e0c;fill-opacity:0.16;"/><path d="M28.588,4.12c-0.021,0.01 -0.041,0.02 -0.062,0.03c-0.02,0.001 -0.04,0.002 -0.06,0.003c0.052,-0.046 0.056,-0.029 0.122,-0.033Z" style="fill:#c75f0b;fill-opacity:0.15;"/><path d="M33.103,4.547c0.024,0.026 0.022,0.023 0.036,0.058l-0.001,0.062c-0.01,-0.02 -0.02,-0.041 -0.031,-0.061c-0.002,-0.02 -0.003,-0.039 -0.005,-0.059Z" style="fill:#cf620b;fill-opacity:0.18;"/><path d="M9.121,5.917l-0.001,0.029c-0.03,0.035 -0.027,0.031 -0.057,0.063c0.022,-0.052 0.02,-0.05 0.058,-0.093Z" style="fill:#e6700e;fill-opacity:0.21;"/><path d="M26.77,5.512c-0.059,0.029 -0.056,0.03 -0.123,0.033c0.051,-0.044 0.055,-0.029 0.123,-0.033Z" style="fill:#c35c0b;fill-opacity:0.15;"/><path d="M6.9,7.663c-0.023,0.043 -0.024,0.039 -0.067,0.057l0.005,-0.026c0.031,-0.024 0.033,-0.011 0.062,-0.031Z" style="fill:#f5770f;fill-opacity:0.15;"/><path d="M29.013,4.12c0.068,0.003 0.068,-0.011 0.124,0.027l-0.062,0.001c-0.021,-0.009 -0.042,-0.019 -0.063,-0.028Z" style="fill:#c15c0a;fill-opacity:0.16;"/><path d="M28.856,4.763c0.044,0.032 0.051,0.031 0.044,0.084c-0.029,-0.033 -0.042,-0.076 -0.044,-0.084Z" style="fill:#df6a0c;fill-opacity:0.17;"/><path d="M7.112,7.482c-0.025,0.043 -0.025,0.037 -0.067,0.056l0.005,-0.025c0.028,-0.022 0.032,-0.01 0.062,-0.032Z" style="fill:#f3760f;fill-opacity:0.18;"/><path d="M11.597,1.786c0.067,0.005 0.064,0.002 0.123,0.027c-0.041,-0.009 -0.082,-0.018 -0.123,-0.027Z" style="fill:#ca620d;fill-opacity:0.18;"/><path d="M8.943,6.191c-0.011,0.03 -0.021,0.06 -0.032,0.09c0.002,-0.051 0.002,-0.048 0.032,-0.09Z" style="fill:#d7690d;fill-opacity:0.15;"/><path d="M30.039,4.674c0.02,0 0.04,0 0.06,0.001c0.009,0.011 0.019,0.022 0.028,0.032c-0.049,-0.01 -0.05,0 -0.089,-0.033Z" style="fill:#d1640b;fill-opacity:0.09;"/><path d="M8.727,6.582l0,0.061c-0.01,0.011 -0.019,0.021 -0.029,0.032c0.004,-0.05 0.006,-0.046 0.029,-0.093Z" style="fill:#df6d0e;fill-opacity:0.21;"/><path d="M32.399,4.62c0.05,0.004 0.046,0.006 0.09,0.028l-0.059,0c-0.01,-0.01 -0.021,-0.019 -0.031,-0.029Z" style="fill:#dd690c;fill-opacity:0.2;"/><path d="M32.921,4.333c0.033,0.03 0.032,0.028 0.06,0.064c-0.041,-0.024 -0.049,-0.016 -0.06,-0.064Z" style="fill:#dc680c;fill-opacity:0.17;"/><path d="M26.618,5.577l-0.007,0.023c-0.005,0.005 -0.031,0.032 -0.058,0.066c0.029,-0.048 0.024,-0.047 0.066,-0.089Z" style="fill:#ba580a;fill-opacity:0.21;"/><path d="M26.618,6.217c0.012,0.001 0.011,0.002 0.093,0.028c-0.021,0.001 -0.042,0.002 -0.063,0.003c-0.01,-0.011 -0.019,-0.021 -0.029,-0.032Z" style="fill:#d4640c;fill-opacity:0.17;"/><path d="M11.87,2.671c-0.023,0.034 -0.054,0.085 -0.059,0.092c0.011,-0.057 0.012,-0.057 0.059,-0.092Z" style="fill:#b3570b;fill-opacity:0.19;"/><path d="M8.626,3.151c-0.009,0.012 -0.018,0.024 -0.027,0.035l-0.021,0.011c0.007,-0.012 -0.034,-0.021 -0.027,-0.033c0,0 0.068,-0.013 0.074,-0.014Z" style="fill:#b46321;fill-opacity:0.21;"/><path d="M11.3,3.793c-0.004,0.052 0.001,0.051 -0.027,0.094l-0.002,-0.062l0.029,-0.032Z" style="fill:#c45f0c;fill-opacity:0.1;"/><path d="M8.059,8.558l0.028,-0.004c-0.008,0.004 -0.061,0.03 -0.093,0.056c0.025,-0.034 0.024,-0.032 0.065,-0.052Z" style="fill:#ac540b;fill-opacity:0.2;"/><path d="M32.526,5.7c-0.031,0.043 -0.032,0.05 -0.086,0.039c0.027,-0.014 0.026,-0.004 0.052,-0.017c0.003,-0.001 0,0 0.034,-0.022Z" style="fill:#c65e0b;fill-opacity:0.16;"/><path d="M33.14,4.605c0.028,0.042 0.023,0.041 0.026,0.094l-0.027,-0.032l0.001,-0.062Z" style="fill:#c75e0b;fill-opacity:0.11;"/><path d="M8.755,6.549c-0.008,0.051 0.002,0.051 -0.027,0.093l-0,-0.061l0.027,-0.032Z" style="fill:#c5600c;fill-opacity:0.11;"/><path d="M7.145,9.093c-0.007,0.005 -0.058,0.036 -0.092,0.059c0.005,-0.007 -0.007,-0.036 0.092,-0.059Z" style="fill:#b6590b;fill-opacity:0.22;"/><path d="M7.995,8.61c-0.039,0.033 -0.041,0.024 -0.09,0.034c0.056,-0.027 0.051,-0.031 0.09,-0.034Z" style="fill:#ca620d;fill-opacity:0.11;"/><path d="M8.757,5.341c-0.011,0.049 -0.001,0.05 -0.034,0.09c0.001,-0.03 0.005,-0.026 0.034,-0.09Z" style="fill:#c7610c;fill-opacity:0.1;"/><path d="M31.218,5.61c0.028,0.067 0.031,0.065 0.033,0.092c-0.035,-0.041 -0.028,-0.041 -0.033,-0.092Z" style="fill:#c65e0b;fill-opacity:0.13;"/><path d="M9.299,7.827c0.02,-0.001 0.039,-0.003 0.059,-0.004c-0.04,0.033 -0.041,0.024 -0.09,0.034l0.031,-0.03Z" style="fill:#c8620c;fill-opacity:0.11;"/><path d="M10.087,7.374c0.019,-0.002 0.038,-0.004 0.058,-0.007c-0.026,0.024 -0.022,0.022 -0.058,0.036l-0.029,0.002l0.03,-0.032Z" style="fill:#c35f0c;fill-opacity:0.13;"/><path d="M29.736,4.147l-0.031,0.03c-0.02,0.002 -0.039,0.004 -0.059,0.006c0.04,-0.035 0.041,-0.025 0.09,-0.036Z" style="fill:#c25c0b;fill-opacity:0.13;"/><path d="M9.145,7.943c-0.027,0.024 -0.023,0.023 -0.058,0.036l-0.029,0.003c0.062,-0.032 0.058,-0.035 0.087,-0.039Z" style="fill:#c05e0c;fill-opacity:0.14;"/><path d="M9.231,5.54c-0.065,0.03 -0.063,0.033 -0.09,0.036c0.039,-0.034 0.041,-0.024 0.09,-0.036Z" style="fill:#bf5d0c;fill-opacity:0.13;"/><path d="M30.746,4.454c0.009,0.011 0.018,0.021 0.026,0.032c0,0.02 0.001,0.041 0.001,0.061c-0.009,-0.031 -0.018,-0.062 -0.027,-0.093Z" style="fill:#c25c0b;fill-opacity:0.22;"/><path d="M9.389,7.797c-0.011,0.009 -0.021,0.017 -0.032,0.026c-0.02,0.001 -0.039,0.003 -0.059,0.004c0.03,-0.01 0.06,-0.02 0.091,-0.031Z" style="fill:#c35f0c;fill-opacity:0.2;"/><path d="M10.058,7.406l0.029,-0.002c-0.02,0.01 -0.041,0.019 -0.061,0.029l-0.029,0.002c0.02,-0.01 0.041,-0.02 0.061,-0.029Z" style="fill:#b6590b;fill-opacity:0.15;"/><path d="M10.508,3.612c-0.031,0.033 -0.028,0.03 -0.062,0.059c0.009,-0.052 0.014,-0.051 0.062,-0.059Z" style="fill:#c25e0c;fill-opacity:0.11;"/><path d="M8.3,8.405c0.019,-0.002 0.038,-0.004 0.058,-0.006c-0.038,0.032 -0.038,0.023 -0.089,0.035l0.032,-0.029Z" style="fill:#c15e0c;fill-opacity:0.13;"/><path d="M30.016,4.661c0.046,-0.01 0.042,-0.002 0.084,0.013c-0.02,-0 -0.04,-0 -0.06,-0.001l-0.024,-0.013Z" style="fill:#e26c0c;fill-opacity:0.17;"/><path d="M26.493,6.003c0.009,0.021 0.017,0.043 0.026,0.064l0.003,0.03c-0.029,-0.043 -0.024,-0.042 -0.028,-0.094Z" style="fill:#b9580a;fill-opacity:0.16;"/><path d="M33.161,5.881c-0.029,0.033 -0.027,0.031 -0.059,0.062c0.008,-0.036 0.016,-0.03 0.059,-0.062Z" style="fill:#c15b0a;fill-opacity:0.15;"/><path d="M30.253,6.215c0.056,0.01 0.052,0.008 0.056,0.01c0.022,0.008 0.012,0.018 0.035,0.026c-0.055,-0.005 -0.055,0.001 -0.091,-0.036Z" style="fill:#c05b0a;fill-opacity:0.15;"/><path d="M27.169,6.221c-0.033,0.027 -0.06,0.049 -0.065,0.054c0.022,-0.018 0.044,-0.036 0.065,-0.054Z" style="fill:#b7560a;fill-opacity:0.16;"/><path d="M32.579,4.764c0.01,0.03 0.019,0.06 0.029,0.089c-0.029,-0.041 -0.02,-0.041 -0.029,-0.089Z" style="fill:#bc590a;fill-opacity:0.14;"/><path d="M6.997,5.828c-0.032,0.026 -0.059,0.049 -0.065,0.053c0.022,-0.018 0.043,-0.035 0.065,-0.053Z" style="fill:#b6590b;fill-opacity:0.14;"/><path d="M7.692,5.432c-0.033,0.026 -0.06,0.048 -0.065,0.053c0.022,-0.018 0.043,-0.035 0.065,-0.053Z" style="fill:#c15e0c;fill-opacity:0.15;"/><path d="M9.664,7.618c0.019,-0.002 0.038,-0.005 0.057,-0.007c-0.038,0.032 -0.039,0.024 -0.089,0.035l0.032,-0.028Z" style="fill:#be5c0c;fill-opacity:0.15;"/><path d="M11.906,2.553c-0.01,0.051 -0.003,0.051 -0.03,0.091c0.01,-0.03 0.02,-0.061 0.03,-0.091Z" style="fill:#b95a0b;fill-opacity:0.16;"/><path d="M8.145,8.518c-0.027,0.025 -0.023,0.023 -0.058,0.036l-0.028,0.004c0.06,-0.032 0.056,-0.035 0.086,-0.04Z" style="fill:#bc5b0c;fill-opacity:0.16;"/><path d="M7.358,8.973c-0.026,0.023 -0.023,0.022 -0.059,0.035l-0.029,0.002c0.064,-0.031 0.06,-0.033 0.088,-0.037Z" style="fill:#bb5b0c;fill-opacity:0.16;"/><path d="M6.995,9.185c-0.039,0.032 -0.04,0.024 -0.089,0.036c0.06,-0.028 0.054,-0.031 0.089,-0.036Z" style="fill:#be5c0c;fill-opacity:0.15;"/><path d="M8.39,8.372c-0.011,0.009 -0.021,0.017 -0.032,0.026c-0.019,0.002 -0.038,0.004 -0.058,0.006c0.03,-0.011 0.06,-0.022 0.09,-0.032Z" style="fill:#be5d0c;fill-opacity:0.22;"/><path d="M9.058,7.982l0.029,-0.003c-0.02,0.01 -0.041,0.02 -0.061,0.03l-0.028,0.003c0.02,-0.01 0.041,-0.02 0.061,-0.03Z" style="fill:#b1560b;fill-opacity:0.16;"/><path d="M33.072,4.517c0.01,0.01 0.021,0.02 0.031,0.03c0.002,0.02 0.003,0.039 0.005,0.059c-0.009,-0.021 -0.015,-0.014 -0.023,-0.035c-0.002,-0.004 0,-0 -0.013,-0.054Z" style="fill:#c75e0b;fill-opacity:0.24;"/><path d="M9.715,6.904l0.028,-0.003c-0.063,0.031 -0.059,0.033 -0.087,0.037c0.027,-0.023 0.023,-0.021 0.059,-0.035Z" style="fill:#ba5b0c;fill-opacity:0.16;"/><path d="M9.993,4.036c-0.032,0.032 -0.03,0.03 -0.063,0.058c0.021,-0.019 0.042,-0.039 0.063,-0.058Z" style="fill:#be5d0c;fill-opacity:0.14;"/><path d="M29.646,4.183c0.02,-0.002 0.039,-0.004 0.059,-0.006c-0.088,0.037 -0.085,0.036 -0.089,0.037c0.01,-0.01 0.02,-0.02 0.03,-0.031Z" style="fill:#c45d0b;fill-opacity:0.24;"/><path d="M7.755,8.734c-0.032,0.032 -0.028,0.03 -0.065,0.056c0.026,-0.037 0.026,-0.033 0.065,-0.056Z" style="fill:#cc630d;fill-opacity:0.19;"/><path d="M27.134,5.549c0.033,0.028 0.03,0.025 0.063,0.058l-0.023,-0.007c-0.005,-0.005 -0.023,0.014 -0.04,-0.051Z" style="fill:#bc590a;fill-opacity:0.15;"/><path d="M9.809,1.672c0.036,0.026 0.032,0.026 0.056,0.065c-0.032,-0.03 -0.029,-0.027 -0.056,-0.065Z" style="fill:#cd640d;fill-opacity:0.2;"/><path d="M8.723,5.43c-0.031,0.029 -0.058,0.054 -0.063,0.059c0.009,-0.036 0.018,-0.029 0.063,-0.059Z" style="fill:#b8590b;fill-opacity:0.14;"/><path d="M28.465,4.153c0.02,-0.001 0.04,-0.002 0.06,-0.003c-0.031,0.01 -0.062,0.019 -0.093,0.029c0.011,-0.009 0.021,-0.017 0.032,-0.026Z" style="fill:#bc5a0a;fill-opacity:0.25;"/><path d="M8.988,7.328l0.028,-0.003c-0.065,0.033 -0.06,0.034 -0.086,0.039c0.028,-0.025 0.023,-0.023 0.058,-0.036Z" style="fill:#b95a0b;fill-opacity:0.17;"/><path d="M26.519,6.067c0.031,0.065 0.033,0.063 0.038,0.088c-0.012,-0.02 -0.024,-0.039 -0.036,-0.059l-0.003,-0.03Z" style="fill:#b7570a;fill-opacity:0.19;"/><path d="M9.753,7.585c-0.011,0.009 -0.021,0.017 -0.032,0.026c-0.019,0.002 -0.038,0.005 -0.057,0.007c0.03,-0.011 0.059,-0.022 0.089,-0.033Z" style="fill:#bb5b0c;fill-opacity:0.23;"/><path d="M10.175,7.338c-0.01,0.01 -0.02,0.02 -0.03,0.03c-0.019,0.002 -0.038,0.004 -0.058,0.007c0.081,-0.035 0.081,-0.035 0.088,-0.037Z" style="fill:#c35f0c;fill-opacity:0.24;"/><path d="M12.061,2.252l-0.002,0.029c-0.014,0.036 -0.012,0.032 -0.035,0.059c0.004,-0.023 0.006,-0.021 0.038,-0.088Z" style="fill:#b4580b;fill-opacity:0.18;"/><path d="M31.734,4.178l0.029,-0.003c-0.067,0.033 -0.062,0.034 -0.087,0.039c0.02,-0.012 0.039,-0.024 0.059,-0.036Z" style="fill:#b5560a;fill-opacity:0.18;"/><path d="M9.264,5.76c-0.028,0.033 -0.026,0.031 -0.059,0.062c0.012,-0.05 0.013,-0.051 0.059,-0.062Z" style="fill:#bb5b0c;fill-opacity:0.15;"/><path d="M10.083,4.338c-0,0 0.016,0.039 -0.063,0.058c0.032,-0.032 0.03,-0.03 0.063,-0.058Z" style="fill:#ba5b0c;fill-opacity:0.16;"/><path d="M12.088,2.188c-0.009,0.049 -0.001,0.049 -0.029,0.093l0.002,-0.029c0.009,-0.021 0.018,-0.042 0.027,-0.064Z" style="fill:#b1560b;fill-opacity:0.18;"/><path d="M9.151,4.859l0.024,-0.006c-0.005,0.005 -0.031,0.03 -0.061,0.06c0.012,-0.018 0.025,-0.036 0.037,-0.054Z" style="fill:#b7590b;fill-opacity:0.15;"/><path d="M6.812,6.307c-0.021,0.019 -0.042,0.039 -0.063,0.058c0.031,-0.032 0.029,-0.03 0.063,-0.058Z" style="fill:#ba5b0c;fill-opacity:0.16;"/><path d="M8.599,5.913c-0.035,0.043 -0.028,0.048 -0.063,0.058c0.033,-0.034 0.03,-0.03 0.063,-0.058Z" style="fill:#b95a0b;fill-opacity:0.16;"/><path d="M8.324,6.032c-0.029,0.031 -0.026,0.028 -0.059,0.061c0.009,-0.032 0.015,-0.026 0.059,-0.061Z" style="fill:#c15e0c;fill-opacity:0.17;"/><path d="M11.694,2.976c-0.01,0.051 -0.003,0.051 -0.03,0.092l0.003,-0.029c0.009,-0.021 0.018,-0.042 0.027,-0.064Z" style="fill:#ac540b;fill-opacity:0.19;"/><path d="M11.668,3.04l-0.003,0.029c-0.012,0.02 -0.023,0.039 -0.035,0.059c0.005,-0.021 0.006,-0.019 0.038,-0.087Z" style="fill:#ad540b;fill-opacity:0.2;"/><path d="M8.516,7.126c-0.006,0.028 -0.012,0.056 -0.018,0.083c-0.008,-0.046 -0,-0.042 0.018,-0.083Z" style="fill:#cb630d;fill-opacity:0.16;"/><path d="M8.543,7.034c-0.005,0.029 -0.01,0.057 -0.015,0.086c-0.007,-0.044 -0.004,-0.04 0.015,-0.086Z" style="fill:#cf650d;fill-opacity:0.17;"/><path d="M6.626,6.482c-0.017,0.013 -0.034,0.026 -0.052,0.038c0.022,-0.028 0.019,-0.028 0.052,-0.038Z" style="fill:#e36e0e;fill-opacity:0.11;"/><path d="M29.743,4.134c0.029,-0.005 0.058,-0.009 0.087,-0.014c-0.045,0.017 -0.041,0.021 -0.087,0.014Z" style="fill:#ce620b;fill-opacity:0.18;"/><path d="M7.05,7.513l-0.005,0.025c-0.01,0.011 -0.02,0.021 -0.03,0.032l0.005,-0.026c0.01,-0.01 0.02,-0.021 0.03,-0.031Z" style="fill:#d4670d;fill-opacity:0.08;"/><path d="M32.589,4.147c0.028,0.006 0.056,0.012 0.084,0.017c-0.048,0.007 -0.043,-0 -0.084,-0.017Z" style="fill:#c75f0b;fill-opacity:0.18;"/><path d="M31.463,4.365l0.026,-0.006c-0.019,0.012 -0.037,0.024 -0.056,0.036c0.01,-0.01 0.02,-0.02 0.03,-0.03Z" style="fill:#cf620b;fill-opacity:0.12;"/><path d="M6.838,7.695l-0.005,0.026c-0.009,0.011 -0.018,0.023 -0.028,0.034c0.012,-0.035 0.01,-0.031 0.032,-0.06Z" style="fill:#ce640d;fill-opacity:0.08;"/><path d="M33.047,6.007c-0.012,0.035 -0.012,0.032 -0.037,0.056c0.012,-0.019 0.025,-0.037 0.037,-0.056Z" style="fill:#d9670c;fill-opacity:0.1;"/><path d="M32.614,5.606c-0.011,0.02 -0.021,0.04 -0.032,0.06c0.01,-0.034 0.008,-0.031 0.032,-0.06Z" style="fill:#d2640b;fill-opacity:0.1;"/><path d="M32.676,5.573c-0.021,0.011 -0.041,0.022 -0.062,0.033c0.028,-0.023 0.024,-0.021 0.062,-0.033Z" style="fill:#c75e0b;fill-opacity:0.12;"/><path d="M32.496,4.12c0.029,0.005 0.058,0.01 0.086,0.015c-0.048,0.005 -0.044,0.001 -0.086,-0.015Z" style="fill:#c85f0b;fill-opacity:0.22;"/><path d="M27.174,5.6l0.023,0.007c0.009,0.011 0.018,0.022 0.028,0.033c-0.017,-0.013 -0.034,-0.026 -0.051,-0.04Z" style="fill:#d0620b;fill-opacity:0.14;"/><path d="M7.413,5.757l-0.004,0.026c-0.009,0.011 -0.019,0.022 -0.028,0.033c0.012,-0.035 0.01,-0.03 0.033,-0.059Z" style="fill:#ce640d;fill-opacity:0.1;"/><path d="M27.254,6.123c-0.021,0.026 -0.018,0.026 -0.049,0.039c0.016,-0.013 0.033,-0.026 0.049,-0.039Z" style="fill:#ce610b;fill-opacity:0.14;"/><path d="M9.997,7.435l0.029,-0.002c-0.021,0.009 -0.041,0.019 -0.062,0.028c0.011,-0.009 0.022,-0.017 0.033,-0.026Z" style="fill:#c05d0c;fill-opacity:0.16;"/><path d="M8.633,8.222l0.029,-0.001c-0.021,0.009 -0.042,0.018 -0.063,0.026c0.011,-0.008 0.023,-0.017 0.034,-0.025Z" style="fill:#c05d0c;fill-opacity:0.15;"/><path d="M9.148,5.885c-0.009,0.021 -0.019,0.041 -0.028,0.062l0.001,-0.029c0.009,-0.011 0.018,-0.022 0.027,-0.032Z" style="fill:#c25e0c;fill-opacity:0.15;"/><path d="M8.36,5.944c-0.009,0.037 -0.008,0.033 -0.027,0.063c0.009,-0.021 0.018,-0.042 0.027,-0.063Z" style="fill:#c15e0c;fill-opacity:0.15;"/><path d="M8.359,7.608l0,0.03l-0.019,0.039c-0.006,-0.041 0.002,-0.035 0.018,-0.069Z" style="fill:#e8710f;fill-opacity:0.25;"/><path d="M9.206,4.823c-0.01,0.01 -0.02,0.02 -0.031,0.03l-0.024,0.006c0.018,-0.012 0.036,-0.024 0.055,-0.036Z" style="fill:#cb630d;fill-opacity:0.14;"/><path d="M31.522,4.331c-0.011,0.009 -0.022,0.019 -0.034,0.028l-0.026,0.006c0.029,-0.024 0.024,-0.022 0.059,-0.034Z" style="fill:#ca600b;fill-opacity:0.13;"/><path d="M26.647,5.546c-0.012,0.018 -0.025,0.036 -0.037,0.054l0.007,-0.023c0.01,-0.01 0.02,-0.021 0.029,-0.031Z" style="fill:#c55d0b;fill-opacity:0.15;"/><path d="M8.998,8.012l0.028,-0.003c-0.02,0.01 -0.041,0.019 -0.061,0.029c0.011,-0.009 0.022,-0.017 0.033,-0.026Z" style="fill:#bb5b0c;fill-opacity:0.17;"/><path d="M10.137,2.129c0.009,0.011 0.018,0.022 0.026,0.032l0.001,0.028c-0.009,-0.02 -0.018,-0.04 -0.028,-0.06Z" style="fill:#bc5c0c;fill-opacity:0.16;"/><path d="M7.271,9.011l0.029,-0.002c-0.021,0.009 -0.042,0.018 -0.063,0.027c0.011,-0.008 0.023,-0.016 0.034,-0.025Z" style="fill:#bc5b0c;fill-opacity:0.17;"/><path d="M9.775,6.875c-0.011,0.009 -0.021,0.018 -0.032,0.027l-0.028,0.003c0.02,-0.01 0.04,-0.019 0.06,-0.029Z" style="fill:#bd5c0c;fill-opacity:0.16;"/><path d="M7.02,7.544l-0.005,0.026c-0.01,0.011 -0.019,0.022 -0.029,0.033c0.011,-0.02 0.022,-0.039 0.033,-0.059Z" style="fill:#ca620d;fill-opacity:0.13;"/><path d="M7.663,8.796c-0.02,0.01 -0.041,0.019 -0.061,0.029c0.02,-0.01 0.041,-0.019 0.061,-0.029Z" style="fill:#b95a0b;fill-opacity:0.18;"/><path d="M7.63,5.581c-0.017,0.066 -0.035,0.051 -0.038,0.054c0.013,-0.033 0.013,-0.03 0.038,-0.054Z" style="fill:#d3670d;fill-opacity:0.13;"/><path d="M8.898,5.724c-0.002,0.002 0.013,0.02 -0.059,0.034c0.028,-0.023 0.024,-0.022 0.059,-0.034Z" style="fill:#c05e0c;fill-opacity:0.16;"/><path d="M8.685,7.51c-0.001,0 0.014,0.019 -0.059,0.035c0.02,-0.012 0.039,-0.023 0.059,-0.035Z" style="fill:#bf5d0c;fill-opacity:0.17;"/><path d="M9.241,4.766c-0.012,0.019 -0.023,0.039 -0.035,0.058c0.012,-0.019 0.023,-0.039 0.035,-0.058Z" style="fill:#c6600c;fill-opacity:0.15;"/><path d="M31.343,4.518c-0.012,0.019 -0.024,0.038 -0.036,0.058c0.012,-0.019 0.024,-0.038 0.036,-0.058Z" style="fill:#c45d0b;fill-opacity:0.18;"/><path d="M8.514,5.703c-0.011,0.02 -0.023,0.039 -0.034,0.059c0.015,-0.068 0.03,-0.053 0.034,-0.059Z" style="fill:#c05e0c;fill-opacity:0.17;"/><path d="M7.237,7.368c-0.013,0.018 -0.025,0.036 -0.038,0.054c0.013,-0.018 0.025,-0.036 0.038,-0.054Z" style="fill:#d1660d;fill-opacity:0.16;"/><path d="M9.414,7.089c-0.02,0.011 -0.04,0.022 -0.061,0.033c0.027,-0.022 0.024,-0.021 0.061,-0.033Z" style="fill:#be5c0c;fill-opacity:0.18;"/><path d="M9.448,7.762c-0.019,0.012 -0.039,0.023 -0.058,0.035c0.029,-0.023 0.024,-0.027 0.058,-0.035Z" style="fill:#bc5c0c;fill-opacity:0.18;"/><path d="M10.331,7.218c-0.013,0.018 -0.025,0.037 -0.038,0.055c0.013,-0.018 0.025,-0.037 0.038,-0.055Z" style="fill:#cd640d;fill-opacity:0.19;"/><path d="M30.47,4.178c0.019,0.012 0.039,0.024 0.058,0.035c-0.069,-0.017 -0.055,-0.033 -0.058,-0.035Z" style="fill:#bc5a0a;fill-opacity:0.19;"/><path d="M7.331,7.19c-0.013,0.015 -0.026,0.031 -0.038,0.046c0.013,-0.015 0.026,-0.031 0.038,-0.046Z" style="fill:#df6d0e;fill-opacity:0.22;"/></g></svg>